HIERARCHY
ROOT Hips
{
	OFFSET 0.053599 88.859886 3.107447
	CHANNELS 6 Xposition Yposition Zposition Zrotation Yrotation Xrotation 
	JOINT Spine
	{
		OFFSET -0.000000 8.814246 -2.080107
		CHANNELS 3 Zrotation Yrotation Xrotation
		JOINT Spine1
		{
			OFFSET 0.000000 8.844141 0.000000
			CHANNELS 3 Zrotation Yrotation Xrotation
			JOINT Spine2
			{
				OFFSET -0.000000 11.682268 0.000000
				CHANNELS 3 Zrotation Yrotation Xrotation
				JOINT Spine3
				{
					OFFSET 0.000000 11.746700 0.000000
					CHANNELS 3 Zrotation Yrotation Xrotation
					JOINT Neck
					{
						OFFSET -0.000000 17.658264 -0.000000
						CHANNELS 3 Zrotation Yrotation Xrotation
						JOINT Neck1
						{
							OFFSET -0.000000 5.101515 -0.000000
							CHANNELS 3 Zrotation Yrotation Xrotation
							JOINT Head
							{
								OFFSET 0.000000 5.101515 0.000000
								CHANNELS 3 Zrotation Yrotation Xrotation
								JOINT HeadEnd
								{
									OFFSET 0.000000 11.655085 0.000000
									CHANNELS 3 Zrotation Yrotation Xrotation
									End Site
									{
										OFFSET 0.000000 0.000000 0.000000
									}
								}
							}
						}
					}
					JOINT RightShoulder
					{
						OFFSET -2.625389 11.175210 0.000000
						CHANNELS 3 Zrotation Yrotation Xrotation
						JOINT RightArm
						{
							OFFSET -0.000000 10.434715 -0.000000
							CHANNELS 3 Zrotation Yrotation Xrotation
							JOINT RightForeArm
							{
								OFFSET -0.000000 29.628420 0.000000
								CHANNELS 3 Zrotation Yrotation Xrotation
								JOINT RightHand
								{
									OFFSET -0.000000 22.857611 0.000000
									CHANNELS 3 Zrotation Yrotation Xrotation
									JOINT RightHandThumb1
									{
										OFFSET -2.867323 3.959563 2.944291
										CHANNELS 3 Zrotation Yrotation Xrotation
										JOINT RightHandThumb2
										{
											OFFSET 0.000000 3.350399 0.000000
											CHANNELS 3 Zrotation Yrotation Xrotation
											JOINT RightHandThumb3
											{
												OFFSET 0.000000 3.756509 -0.000000
												CHANNELS 3 Zrotation Yrotation Xrotation
												JOINT RightHandThumb4
												{
													OFFSET 0.000000 3.147345 0.000000
													CHANNELS 3 Zrotation Yrotation Xrotation
													End Site
													{
														OFFSET 0.000000 0.000000 0.000000
													}
												}
											}
										}
									}
									JOINT RightHandIndex1
									{
										OFFSET -0.086752 10.030893 2.345280
										CHANNELS 3 Zrotation Yrotation Xrotation
										JOINT RightHandIndex2
										{
											OFFSET -0.000000 4.061090 0.000000
											CHANNELS 3 Zrotation Yrotation Xrotation
											JOINT RightHandIndex3
											{
												OFFSET -0.000000 3.248873 0.000000
												CHANNELS 3 Zrotation Yrotation Xrotation
												JOINT RightHandIndex4
												{
													OFFSET 0.000000 2.639709 -0.000000
													CHANNELS 3 Zrotation Yrotation Xrotation
													End Site
													{
														OFFSET 0.000000 0.000000 0.000000
													}
												}
											}
										}
									}
									JOINT RightHandMiddle1
									{
										OFFSET 0.104102 9.502952 0.006768
										CHANNELS 3 Zrotation Yrotation Xrotation
										JOINT RightHandMiddle2
										{
											OFFSET 0.000000 4.568727 0.000000
											CHANNELS 3 Zrotation Yrotation Xrotation
											JOINT RightHandMiddle3
											{
												OFFSET 0.000000 3.654981 -0.000000
												CHANNELS 3 Zrotation Yrotation Xrotation
												JOINT RightHandMiddle4
												{
													OFFSET -0.000000 2.741236 -0.000000
													CHANNELS 3 Zrotation Yrotation Xrotation
													End Site
													{
														OFFSET 0.000000 0.000000 0.000000
													}
												}
											}
										}
									}
									JOINT RightHandRing1
									{
										OFFSET 0.086752 8.921708 -2.267442
										CHANNELS 3 Zrotation Yrotation Xrotation
										JOINT RightHandRing2
										{
											OFFSET -0.000000 4.061090 0.000000
											CHANNELS 3 Zrotation Yrotation Xrotation
											JOINT RightHandRing3
											{
												OFFSET 0.000000 3.654981 -0.000000
												CHANNELS 3 Zrotation Yrotation Xrotation
												JOINT RightHandRing4
												{
													OFFSET 0.000000 2.741236 -0.000000
													CHANNELS 3 Zrotation Yrotation Xrotation
													End Site
													{
														OFFSET 0.000000 0.000000 0.000000
													}
												}
											}
										}
									}
									JOINT RightHandPinky1
									{
										OFFSET -0.173504 7.976997 -4.467199
										CHANNELS 3 Zrotation Yrotation Xrotation
										JOINT RightHandPinky2
										{
											OFFSET 0.000000 3.350399 -0.000000
											CHANNELS 3 Zrotation Yrotation Xrotation
											JOINT RightHandPinky3
											{
												OFFSET -0.000000 2.842763 0.000000
												CHANNELS 3 Zrotation Yrotation Xrotation
												JOINT RightHandPinky4
												{
													OFFSET -0.000000 2.639709 0.000000
													CHANNELS 3 Zrotation Yrotation Xrotation
													End Site
													{
														OFFSET 0.000000 0.000000 0.000000
													}
												}
											}
										}
									}
									JOINT RightForeArmEnd
									{
										OFFSET 0.000000 0.000000 0.000000
										CHANNELS 3 Zrotation Yrotation Xrotation
										End Site
										{
											OFFSET 0.000000 0.000000 0.000000
										}
									}
								}
								JOINT RightArmEnd
								{
									OFFSET 0.000000 0.000000 0.000000
									CHANNELS 3 Zrotation Yrotation Xrotation
									End Site
									{
										OFFSET 0.000000 0.000000 0.000000
									}
								}
							}
						}
					}
					JOINT LeftShoulder
					{
						OFFSET 2.625389 11.175210 0.000000
						CHANNELS 3 Zrotation Yrotation Xrotation
						JOINT LeftArm
						{
							OFFSET 0.000000 10.813635 -0.000000
							CHANNELS 3 Zrotation Yrotation Xrotation
							JOINT LeftForeArm
							{
								OFFSET 0.000000 28.724781 0.000000
								CHANNELS 3 Zrotation Yrotation Xrotation
								JOINT LeftHand
								{
									OFFSET 0.644384 25.716167 -0.328871
									CHANNELS 3 Zrotation Yrotation Xrotation
									JOINT LeftHandThumb1
									{
										OFFSET 2.867323 3.959563 2.944291
										CHANNELS 3 Zrotation Yrotation Xrotation
										JOINT LeftHandThumb2
										{
											OFFSET 0.000000 3.350399 0.000000
											CHANNELS 3 Zrotation Yrotation Xrotation
											JOINT LeftHandThumb3
											{
												OFFSET -0.000000 3.756509 0.000000
												CHANNELS 3 Zrotation Yrotation Xrotation
												JOINT LeftHandThumb4
												{
													OFFSET -0.000000 3.100000 0.000000
													CHANNELS 3 Zrotation Yrotation Xrotation
													End Site
													{
														OFFSET 0.000000 0.000000 0.000000
													}
												}
											}
										}
									}
									JOINT LeftHandIndex1
									{
										OFFSET 0.086752 10.030893 2.345280
										CHANNELS 3 Zrotation Yrotation Xrotation
										JOINT LeftHandIndex2
										{
											OFFSET -0.000000 4.061090 -0.000000
											CHANNELS 3 Zrotation Yrotation Xrotation
											JOINT LeftHandIndex3
											{
												OFFSET 0.000000 3.248873 -0.000000
												CHANNELS 3 Zrotation Yrotation Xrotation
												JOINT LeftHandIndex4
												{
													OFFSET 0.000000 2.639709 -0.000000
													CHANNELS 3 Zrotation Yrotation Xrotation
													End Site
													{
														OFFSET 0.000000 0.000000 0.000000
													}
												}
											}
										}
									}
									JOINT LeftHandMiddle1
									{
										OFFSET -0.104102 9.502952 0.006768
										CHANNELS 3 Zrotation Yrotation Xrotation
										JOINT LeftHandMiddle2
										{
											OFFSET -0.000000 4.568727 -0.000000
											CHANNELS 3 Zrotation Yrotation Xrotation
											JOINT LeftHandMiddle3
											{
												OFFSET 0.000000 3.654981 0.000000
												CHANNELS 3 Zrotation Yrotation Xrotation
												JOINT LeftHandMiddle4
												{
													OFFSET 0.000000 2.741236 -0.000000
													CHANNELS 3 Zrotation Yrotation Xrotation
													End Site
													{
														OFFSET 0.000000 0.000000 0.000000
													}
												}
											}
										}
									}
									JOINT LeftHandRing1
									{
										OFFSET -0.086752 8.921708 -2.267442
										CHANNELS 3 Zrotation Yrotation Xrotation
										JOINT LeftHandRing2
										{
											OFFSET 0.000000 4.061090 0.000000
											CHANNELS 3 Zrotation Yrotation Xrotation
											JOINT LeftHandRing3
											{
												OFFSET 0.000000 3.654981 0.000000
												CHANNELS 3 Zrotation Yrotation Xrotation
												JOINT LeftHandRing4
												{
													OFFSET 0.000000 2.741236 0.000000
													CHANNELS 3 Zrotation Yrotation Xrotation
													End Site
													{
														OFFSET 0.000000 0.000000 0.000000
													}
												}
											}
										}
									}
									JOINT LeftHandPinky1
									{
										OFFSET 0.173504 7.976997 -4.467199
										CHANNELS 3 Zrotation Yrotation Xrotation
										JOINT LeftHandPinky2
										{
											OFFSET -0.000000 3.350399 -0.000000
											CHANNELS 3 Zrotation Yrotation Xrotation
											JOINT LeftHandPinky3
											{
												OFFSET 0.000000 2.842763 0.000000
												CHANNELS 3 Zrotation Yrotation Xrotation
												JOINT LeftHandPinky4
												{
													OFFSET -0.000000 2.639709 -0.000000
													CHANNELS 3 Zrotation Yrotation Xrotation
													End Site
													{
														OFFSET 0.000000 0.000000 0.000000
													}
												}
											}
										}
									}
									JOINT LeftForeArmEnd
									{
										OFFSET 0.000000 0.000000 0.000000
										CHANNELS 3 Zrotation Yrotation Xrotation
										End Site
										{
											OFFSET 0.000000 0.000000 0.000000
										}
									}
								}
								JOINT LeftArmEnd
								{
									OFFSET 0.000000 0.000000 0.000000
									CHANNELS 3 Zrotation Yrotation Xrotation
									End Site
									{
										OFFSET 0.000000 0.000000 0.000000
									}
								}
							}
						}
					}
				}
			}
		}
	}
	JOINT RightUpLeg
	{
		OFFSET -11.289943 0.000000 0.000000
		CHANNELS 3 Zrotation Yrotation Xrotation
		JOINT RightLeg
		{
			OFFSET 0.000000 -38.200325 0.000000
			CHANNELS 3 Zrotation Yrotation Xrotation
			JOINT RightFoot
			{
				OFFSET -0.000000 -39.900856 -0.000000
				CHANNELS 3 Zrotation Yrotation Xrotation
				JOINT RightToeBase
				{
					OFFSET 0.000000 0.000000 15.261641
					CHANNELS 3 Zrotation Yrotation Xrotation
					JOINT RightToeBaseEnd
					{
						OFFSET 0.000000 0.000000 7.370709
						CHANNELS 3 Zrotation Yrotation Xrotation
						End Site
						{
							OFFSET 0.000000 0.000000 0.000000
						}
					}
				}
				JOINT RightLegEnd
				{
					OFFSET 0.000000 0.000000 0.000000
					CHANNELS 3 Zrotation Yrotation Xrotation
					End Site
					{
						OFFSET 0.000000 0.000000 0.000000
					}
				}
			}
			JOINT RightUpLegEnd
			{
				OFFSET 0.000000 0.000000 0.000000
				CHANNELS 3 Zrotation Yrotation Xrotation
				End Site
				{
					OFFSET 0.000000 0.000000 0.000000
				}
			}
		}
	}
	JOINT LeftUpLeg
	{
		OFFSET 11.315661 -0.000000 0.000000
		CHANNELS 3 Zrotation Yrotation Xrotation
		JOINT LeftLeg
		{
			OFFSET -0.000000 -38.200325 -0.000000
			CHANNELS 3 Zrotation Yrotation Xrotation
			JOINT LeftFoot
			{
				OFFSET 0.000000 -39.900856 -0.000000
				CHANNELS 3 Zrotation Yrotation Xrotation
				JOINT LeftToeBase
				{
					OFFSET -0.000000 -0.000000 15.261641
					CHANNELS 3 Zrotation Yrotation Xrotation
					JOINT LeftToeBaseEnd
					{
						OFFSET 0.000000 -0.000000 7.539996
						CHANNELS 3 Zrotation Yrotation Xrotation
						End Site
						{
							OFFSET 0.000000 0.000000 0.000000
						}
					}
				}
				JOINT LeftLegEnd
				{
					OFFSET 0.000000 0.000000 0.000000
					CHANNELS 3 Zrotation Yrotation Xrotation
					End Site
					{
						OFFSET 0.000000 0.000000 0.000000
					}
				}
			}
			JOINT LeftUpLegEnd
			{
				OFFSET 0.000000 0.000000 0.000000
				CHANNELS 3 Zrotation Yrotation Xrotation
				End Site
				{
					OFFSET 0.000000 0.000000 0.000000
				}
			}
		}
	}
}
MOTION
Frames: 4
Frame Time: 0.016667
0.333399 88.615433 3.044064 -0.042762 -0.239575 -11.682654 1.084303 0.148554 7.358142 -1.059648 0.483594 2.791556 0.091896 -0.444165 5.510684 -1.332491 0.319115 4.921243 1.715968 -0.010254 6.095640 0.540699 0.433993 -2.714857 -0.176429 -1.137951 -20.454742 0.000000 0.000000 0.000000 92.836967 -0.336654 10.048061 68.081146 -21.537786 1.922991 0.251445 20.193163 32.519779 -1.832410 14.043038 -6.672170 18.362152 30.537565 63.448143 -7.038873 -9.265392 -16.281664 -5.140943 -6.109745 -11.186625 0.000000 0.000000 0.000000 -0.660315 -8.829151 6.921576 2.514655 0.514079 0.785715 2.200581 0.080663 0.797299 0.000000 0.000000 0.000000 0.215176 -3.459970 3.665960 1.722650 0.523198 0.258590 2.253610 0.015103 0.235384 0.000000 0.000000 0.000000 3.783417 3.952240 0.936960 3.475283 -1.021228 -0.435711 3.369006 -0.031461 -0.278660 0.000000 0.000000 0.000000 5.128496 12.250340 -2.970681 4.994123 -2.009992 -1.143126 4.664670 -0.034240 -0.858104 0.000000 0.000000 0.000000 0.000000 0.000000 0.000000 0.000000 0.000000 0.000000 -90.697807 0.254765 4.689073 -70.675797 10.955105 -5.284055 -0.307517 -15.424338 67.156311 2.900111 -11.207515 -9.193856 -19.665861 -30.166468 62.164787 8.434286 11.812918 -20.059320 6.206746 7.914015 -14.052731 0.000000 0.000000 0.000000 -15.226101 -6.146929 6.089585 -9.879521 0.481043 -0.690158 -9.766568 0.002932 -0.668326 0.000000 0.000000 0.000000 -16.030546 -0.800534 3.298722 -10.175684 0.482060 -0.338680 -10.461515 -0.009169 -0.266829 0.000000 0.000000 0.000000 -21.904476 7.952127 0.248346 -14.022027 -0.974333 0.634588 -13.967289 0.018101 0.497906 0.000000 0.000000 0.000000 -26.225807 16.943253 -3.928568 -16.787102 -1.759351 2.184988 -16.268171 0.241598 1.902927 0.000000 0.000000 0.000000 0.000000 0.000000 0.000000 0.000000 0.000000 0.000000 -1.139971 -9.986967 16.163912 -0.085772 -0.738118 5.059222 -2.779644 -7.246920 16.894527 -0.845694 0.860770 -18.308294 0.000000 0.000000 0.000000 0.000000 0.000000 0.000000 0.000000 0.000000 0.000000 -1.413406 -6.658579 10.463481 0.053562 0.288949 10.556231 3.785270 -1.703984 15.995728 0.211435 -0.425054 -20.573835 0.000000 0.000000 0.000000 0.000000 0.000000 0.000000 0.000000 0.000000 0.000000 
0.320556 88.607414 3.040394 -0.057468 -0.264955 -11.678066 1.062523 0.150253 7.370153 -1.062270 0.476088 2.815787 0.111132 -0.481313 5.514571 -1.319635 0.301946 4.916804 1.722519 0.020182 6.022721 0.543189 0.457390 -2.746954 -0.184638 -1.126264 -20.413900 0.000000 0.000000 0.000000 92.858551 -0.333983 10.051486 67.987053 -21.761221 2.053419 0.261238 20.239822 32.147388 -1.574828 13.960459 -6.614588 18.570536 30.470121 63.245560 -7.260352 -9.669711 -16.895702 -5.319320 -6.375498 -11.623761 0.000000 0.000000 0.000000 0.923043 -9.113453 6.265349 3.237052 0.504343 0.831732 2.933728 0.071532 0.839847 0.000000 0.000000 0.000000 1.684834 -3.720427 3.230062 2.429648 0.519447 0.275648 2.951020 0.011381 0.250197 0.000000 0.000000 0.000000 5.130196 3.711845 0.787626 4.191838 -1.015490 -0.460219 4.075509 -0.026957 -0.296838 0.000000 0.000000 0.000000 6.299744 12.046344 -2.827104 5.635561 -1.993410 -1.218332 5.294511 -0.020775 -0.918430 0.000000 0.000000 0.000000 0.000000 0.000000 0.000000 0.000000 0.000000 0.000000 -90.697548 0.260562 4.742621 -70.690422 11.296807 -5.459239 -0.318954 -15.482637 66.882576 2.231794 -10.779408 -9.311861 -19.973818 -30.078552 61.871231 8.724315 12.419901 -20.962442 6.449368 8.308800 -14.685586 0.000000 0.000000 0.000000 -17.377588 -5.752237 5.054062 -11.227788 0.462798 -0.751696 -11.109721 -0.015581 -0.720303 0.000000 0.000000 0.000000 -18.073757 -0.439557 2.592857 -11.494426 0.473133 -0.365165 -11.786045 -0.016858 -0.287765 0.000000 0.000000 0.000000 -23.807734 8.245648 -0.055064 -15.348322 -0.958869 0.668211 -15.281024 0.027968 0.524050 0.000000 0.000000 0.000000 -27.856314 17.125654 -3.806536 -17.966114 -1.716577 2.276201 -17.445436 0.272674 1.974499 0.000000 0.000000 0.000000 0.000000 0.000000 0.000000 0.000000 0.000000 0.000000 -1.129994 -9.968324 16.173536 -0.085705 -0.741528 5.025418 -2.770935 -7.210786 16.881481 -0.853702 0.869295 -18.300076 0.000000 0.000000 0.000000 0.000000 0.000000 0.000000 0.000000 0.000000 0.000000 -1.413292 -6.630554 10.461758 0.052151 0.283634 10.592598 3.782104 -1.671094 15.932714 0.205996 -0.418714 -20.548721 0.000000 0.000000 0.000000 0.000000 0.000000 0.000000 0.000000 0.000000 0.000000 
0.307146 88.600815 3.041303 -0.070745 -0.293970 -11.670948 1.037029 0.151795 7.374499 -1.070462 0.470147 2.841159 0.130993 -0.525283 5.521980 -1.307025 0.281997 4.902124 1.717439 0.052820 5.948851 0.549066 0.483388 -2.779921 -0.197017 -1.118784 -20.357727 0.000000 0.000000 0.000000 92.898369 -0.333874 10.050331 67.896721 -21.990456 2.201679 0.268563 20.323124 31.757936 -1.326623 13.856429 -6.542665 18.789162 30.401375 63.036537 -7.485550 -10.096907 -17.535179 -5.502494 -6.654532 -12.079226 0.000000 0.000000 0.000000 2.624907 -9.417439 5.551148 4.095037 0.494410 0.879294 3.804565 0.062377 0.883972 0.000000 0.000000 0.000000 3.245043 -3.996841 2.757169 3.260927 0.515619 0.293578 3.773077 0.007683 0.265772 0.000000 0.000000 0.000000 6.526231 3.461040 0.622606 5.005119 -1.009631 -0.486821 4.878853 -0.022332 -0.316848 0.000000 0.000000 0.000000 7.494626 11.831922 -2.680339 6.334615 -1.976428 -1.303013 5.986732 -0.007062 -0.988526 0.000000 0.000000 0.000000 0.000000 0.000000 0.000000 0.000000 0.000000 0.000000 -90.707672 0.266076 4.799091 -70.721039 11.676238 -5.658453 -0.331830 -15.548699 66.631210 1.673202 -10.294223 -9.416222 -20.224550 -30.007877 61.631596 8.956053 12.919746 -21.698545 6.644666 8.632230 -15.202665 0.000000 0.000000 0.000000 -19.136782 -5.427846 4.182208 -12.348810 0.445271 -0.813094 -12.227396 -0.033121 -0.772760 0.000000 0.000000 0.000000 -19.739624 -0.145920 1.992605 -12.584653 0.464555 -0.391092 -12.879749 -0.024220 -0.308638 0.000000 0.000000 0.000000 -25.323845 8.474885 -0.335343 -16.418060 -0.944362 0.701026 -16.339106 0.037258 0.549458 0.000000 0.000000 0.000000 -29.120558 17.264082 -3.741107 -18.897076 -1.678057 2.365350 -18.377962 0.300891 2.045338 0.000000 0.000000 0.000000 0.000000 0.000000 0.000000 0.000000 0.000000 0.000000 -1.128813 -9.948183 16.184929 -0.085798 -0.744667 4.987798 -2.761765 -7.166905 16.875731 -0.861730 0.876911 -18.291132 0.000000 0.000000 0.000000 0.000000 0.000000 0.000000 0.000000 0.000000 0.000000 -1.418405 -6.599180 10.462265 0.051033 0.278680 10.625654 3.779116 -1.631609 15.875597 0.200464 -0.412051 -20.525408 0.000000 0.000000 0.000000 0.000000 0.000000 0.000000 0.000000 0.000000 0.000000 
0.293781 88.595543 3.047583 -0.082946 -0.327789 -11.663177 1.009622 0.153006 7.372560 -1.084775 0.466505 2.864686 0.149135 -0.573087 5.536625 -1.294445 0.259238 4.878414 1.701250 0.087628 5.875826 0.558814 0.513947 -2.813440 -0.214025 -1.116886 -20.285961 0.000000 0.000000 0.000000 92.955048 -0.335867 10.046209 67.814621 -22.200117 2.369946 0.273935 20.440157 31.370523 -1.062880 13.721021 -6.469159 19.009640 30.333975 62.829014 -7.705592 -10.528520 -18.175156 -5.683026 -6.935488 -12.534938 0.000000 0.000000 0.000000 4.376814 -9.725798 4.804970 5.045704 0.482769 0.931249 4.769979 0.051775 0.932149 0.000000 0.000000 0.000000 4.831160 -4.276762 2.262139 4.175149 0.511044 0.313799 4.679226 0.003531 0.283136 0.000000 0.000000 0.000000 7.907842 3.210009 0.441542 5.873654 -1.002716 -0.517360 5.739477 -0.016877 -0.339997 0.000000 0.000000 0.000000 8.657763 11.614211 -2.546313 7.054210 -1.956207 -1.401442 6.705353 0.009172 -1.072256 0.000000 0.000000 0.000000 0.000000 0.000000 0.000000 0.000000 0.000000 0.000000 -90.725891 0.271725 4.859050 -70.770805 12.071447 -5.873693 -0.349682 -15.634760 66.381378 1.165560 -9.826885 -9.531229 -20.429855 -29.951006 61.434917 9.141623 13.332733 -22.301319 6.802241 8.898588 -15.627435 0.000000 0.000000 0.000000 -20.575371 -5.161872 3.443419 -13.274513 0.428101 -0.873948 -13.150602 -0.049988 -0.825546 0.000000 0.000000 0.000000 -21.093578 0.091929 1.474628 -13.479017 0.456203 -0.416371 -13.774804 -0.031369 -0.329393 0.000000 0.000000 0.000000 -26.519323 8.652406 -0.604545 -17.264189 -0.930665 0.732842 -17.175812 0.046174 0.573936 0.000000 0.000000 0.000000 -30.081602 17.368479 -3.731271 -19.608620 -1.643130 2.450615 -19.095039 0.326904 2.114536 0.000000 0.000000 0.000000 0.000000 0.000000 0.000000 0.000000 0.000000 0.000000 -1.134454 -9.932501 16.199617 -0.085975 -0.747375 4.947650 -2.753170 -7.118643 16.875103 -0.869068 0.883859 -18.281157 0.000000 0.000000 0.000000 0.000000 0.000000 0.000000 0.000000 0.000000 0.000000 -1.424998 -6.568020 10.463507 0.050376 0.274875 10.656158 3.773812 -1.590176 15.827540 0.195615 -0.405433 -20.506197 0.000000 0.000000 0.000000 0.000000 0.000000 0.000000 0.000000 0.000000 0.000000 
